<svg width="1200" height="420" viewBox="0 0 1200 420" fill="none" xmlns="http://www.w3.org/2000/svg">
  <rect width="1200" height="420" rx="32" fill="#0F172A"/>
  <g transform="translate(90 70)">
    <path d="M155 214H62C28 214 0 187 0 153C0 121 25 95 57 92C69 39 116 0 172 0C226 0 273 36 287 86C329 91 362 127 362 171C362 219 323 258 275 258H155C142 258 132 248 132 236C132 224 142 214 155 214Z" fill="#38BDF8"/>
    <path d="M210 238L250 160H210L238 94L154 190H197L171 270L210 238Z" fill="#F8FAFC"/>
  </g>
  <text x="510" y="170" fill="#F8FAFC" font-family="Arial, Helvetica, sans-serif" font-size="68" font-weight="700">Magic Cloud</text>
  <text x="512" y="230" fill="#93C5FD" font-family="Arial, Helvetica, sans-serif" font-size="30" font-weight="500">UMKM Success Prediction</text>
  <text x="512" y="282" fill="#CBD5E1" font-family="Arial, Helvetica, sans-serif" font-size="24">Universitas Widya Mandala Surabaya</text>
</svg>
